<?xml version="1.0" standalone="no"?>
<!DOCTYPE svg PUBLIC "-//W3C//DTD SVG 1.1//EN" "http://www.w3.org/Graphics/SVG/1.1/DTD/svg11.dtd" >
<svg xmlns="http://www.w3.org/2000/svg">
<metadata>Generated by IcoMoon</metadata>
<defs>
<font id="dls-icons" horiz-adv-x="1024">
<font-face units-per-em="1024" ascent="960" descent="-64" />
<missing-glyph horiz-adv-x="1024" />
<glyph unicode="&#x20;" horiz-adv-x="512" d="" />
<glyph unicode="&#xe900;" glyph-name="icon-control-center" d="M987.281 463.386l-54.82-54.82-420.461-420.978-328.921 328.921 122.053 122.57c-0.24-3.731-0.377-8.090-0.377-12.481 0-114.25 92.618-206.869 206.869-206.869 55.822 0 106.479 22.11 143.693 58.050l-0.060-0.058 258.586 258.586-401.842 402.36-512-512 36.719-36.719 54.82 54.82 420.461 420.978 329.438-329.438-122.57-122.57c0.282 4.049 0.443 8.774 0.443 13.537 0 114.25-92.618 206.869-206.869 206.869-57.387 0-109.316-23.367-146.791-61.105l-8.804-8.804-247.208-247.725 402.36-401.842 512 512zM402.36 536.307c28.084 28.118 66.899 45.511 109.777 45.511 85.688 0 155.152-69.464 155.152-155.152s-69.464-155.152-155.152-155.152c-42.878 0-81.693 17.393-109.775 45.509l-0.002 0.002c-28.036 28.070-45.375 66.83-45.375 109.64s17.338 81.57 45.376 109.642l-0.002-0.002z" />
<glyph unicode="&#xe901;" glyph-name="icon-user-profile" d="M370.176 324.267l-185.344-89.088c-46.621-17.595-79.71-60.676-82.419-111.814l-0.013-0.314v-157.184h819.2v157.184c-2.722 51.452-35.811 94.533-81.562 111.839l-0.87 0.289-110.080 48.128 34.304 40.96 96.256-41.984c64.98-25.631 110.623-86.797 113.144-158.929l0.008-0.303v-208.384h-921.6v208.384c2.529 72.435 48.172 133.601 111.952 158.814l1.2 0.418 194.048 93.184h153.6c0.078 0 0.169 0 0.261 0 141.385 0 256 114.615 256 256s-114.615 256-256 256c-141.385 0-256-114.615-256-256 0-64.64 23.958-123.685 63.478-168.739l-0.251 0.291-33.28-39.424c-50.221 54.512-81.012 127.596-81.012 207.872 0 169.662 137.538 307.2 307.2 307.2s307.2-137.538 307.2-307.2c0-169.662-137.538-307.2-307.2-307.2-0.139 0-0.279 0-0.418 0h0.022z" />
<glyph unicode="&#xe902;" glyph-name="icon-scheduler" d="M146.36 353.746l474.246 475.281 403.394-402.36-512-512-512 512 109.64 109.64-36.719 36.719 36.719 36.719 36.719-36.719 219.281 219.281-36.719 36.719 36.719 36.719 36.719-36.719 109.64 109.64 36.719-36.719-109.64-109.64 36.719-36.719-36.719-36.719-36.719 36.719-219.281-219.281 36.719-36.719-36.719-36.719-36.719 36.719-73.438-72.921zM620.606 755.588l-437.527-437.527 328.921-329.956 438.562 438.562-329.956 328.921zM292.719 280.825l137.051 137.051 36.719-36.719-137.051-137.051zM479.935 321.681l137.051 137.051 36.719-36.719-136.533-137.051zM667.152 362.538l137.051 137.051 36.719-36.719-137.051-137.051z" />
<glyph unicode="&#xe903;" glyph-name="icon-track" d="M467.806 339.896c-102.877 16.214-180.618 104.241-180.618 210.425 0 117.573 95.312 212.884 212.884 212.884s212.884-95.312 212.884-212.884c0-78.899-42.922-147.773-106.689-184.547l-1.030-0.548v66.291c32.894 29.262 53.514 71.705 53.514 118.964 0 87.807-71.182 158.989-158.989 158.989s-158.989-71.182-158.989-158.989c0-82.628 63.033-150.535 143.637-158.258l0.643-0.050h35.032v-476.968l-21.019-22.097-37.726 38.265c-214.501 220.968-331.992 407.983-350.855 566.973-1.658 13.591-2.604 29.326-2.604 45.281 0 217.2 175.285 393.46 392.113 395.038l0.15 0.001c0.931 0.008 2.031 0.013 3.133 0.013 215.203 0 389.659-174.456 389.659-389.659 0-18.823-1.335-37.335-3.915-55.445l0.243 2.077c-4.436-26.206-10.052-48.889-17.154-70.904l0.986 3.536h-56.589c7.759 21.368 14.498 46.929 19.013 73.249l0.389 2.742c1.857 13.277 2.918 28.616 2.918 44.202 0 185.735-150.568 336.303-336.303 336.303-0.836 0-1.672-0.003-2.507-0.009l0.129 0.001c-188.234-0.238-340.735-152.887-340.735-341.153 0-13.864 0.827-27.535 2.434-40.966l-0.158 1.622q24.253-204.8 303.427-499.065z" />
<glyph unicode="&#xe904;" glyph-name="icon-driver" d="M772.096 344.747l-285.696 285.696-96.256-193.024 188.928-189.952zM530.432 657.067l270.336-270.336 137.728 224.256-184.32 184.32zM523.264 230.059l-195.584 197.12 120.832 241.664 313.856 193.024 241.152-241.152-193.024-313.856-149.504-74.752h363.008v-51.2h-716.8v51.2zM51.2 129.707h972.8v-51.2h-1024v204.8h51.2zM0 388.779l121.344 252.928h185.856v-358.4h-307.2zM153.6 590.507l-102.4-213.504v-42.496h204.8v256zM51.2 78.507h204.8c0-56.554-45.846-102.4-102.4-102.4s-102.4 45.846-102.4 102.4v0zM204.8 78.507h-102.4c0-28.277 22.923-51.2 51.2-51.2s51.2 22.923 51.2 51.2v0zM409.6 78.507h204.8c0-56.554-45.846-102.4-102.4-102.4s-102.4 45.846-102.4 102.4v0zM563.2 78.507h-102.4c0-28.277 22.923-51.2 51.2-51.2s51.2 22.923 51.2 51.2v0zM768 78.507h204.8c0-56.554-45.846-102.4-102.4-102.4s-102.4 45.846-102.4 102.4v0zM921.6 78.507h-102.4c0-28.277 22.923-51.2 51.2-51.2s51.2 22.923 51.2 51.2v0z" />
<glyph unicode="&#xe905;" glyph-name="icon-pricing" d="M832.512 251.051l77.824-77.824-36.352-36.352-113.664 113.664 191.488 191.488-238.080 238.080-403.456-403.456-134.656 134.656 403.456 403.456-51.2 51.2-191.488-190.976-114.176 113.664 36.352 36.352 77.824-77.824 190.976 191.488 123.904-123.904-402.944-403.456 61.952-61.952 403.456 403.456 310.272-310.784-191.488-191.488zM687.616 106.155l-190.976-191.488-124.416 123.904 403.456 403.456-61.952 62.464-403.456-403.456-310.272 310.272 191.488 190.976-77.824 77.824 36.352 36.352 113.664-114.176-191.488-190.976 238.080-238.080 403.456 403.456 134.656-134.656-403.456-403.456 51.2-51.2 191.488 191.488 113.664-113.664-36.352-36.352z" />
<glyph unicode="&#xe906;" glyph-name="icon-payment" horiz-adv-x="1021" d="M0 81.522l170.493 77.45 336.828-186.087 437.669 242.745-27.029 37.425-247.423-133.588h-227.671v51.98h190.246v48.341h-204.8l-187.647 98.761-240.666-135.667v59.777l239.626 135.147 201.681-106.558h243.785v-85.247l250.542 135.667 88.365-121.632-516.678-285.369-338.908 187.127-168.414-77.45zM400.763 720.352l-108.118-108.118 252.621-252.621 108.118 108.118-34.307 34.307-73.291-73.811-36.906 36.906 147.103 147.103-36.906 36.906-147.103-147.103-108.118 110.197 71.732 73.291zM437.149 756.738l34.826-34.826 72.772 72.772 36.906-36.906-146.583-146.063 36.386-36.906 147.103 147.103 103.959-103.959 5.198-6.757-72.772-72.772 34.307-34.307 108.638 108.638-252.621 252.621zM218.835 612.235l326.432 326.432 326.432-326.432-326.432-326.432z" />
<glyph unicode="&#xe907;" glyph-name="icon-ordering" d="M639.741 774.206l18.101 18.101 366.158-365.64-512-512-512 512 512 512 36.719-36.719-54.82-54.82-420.978-420.461 439.079-438.562 438.562 438.562-292.202 292.719-292.719-292.719-36.719 36.719zM219.281 353.746l73.438 72.921 36.719-36.719-73.438-71.887zM438.562 353.746l256 256 36.719-36.719-256-254.966zM328.921 243.588l73.438 74.473 36.719-36.719-73.438-73.956zM548.202 243.588l256 256 36.719-36.719-256-256zM439.079 133.948l72.921 73.438 36.719-36.719-73.438-72.921z" />
<glyph unicode="&#xe908;" glyph-name="icon-accepted-ok" horiz-adv-x="1018" d="M421.896 355.644l-116.605 116.605c-16.961 16.961-42.402 16.961-59.362 0l-63.602-63.602c-16.961-16.961-16.961-42.402 0-59.362l209.888-209.888c16.961-16.961 42.402-16.961 59.362 0 0 0 0 0 0 0l387.975 387.975c16.961 16.961 16.961 42.402 0 59.362 0 0 0 0 0 0l-63.602 63.602c-16.961 16.961-42.402 16.961-59.362 0 0 0 0 0 0 0l-294.692-294.692zM508.82 938.667c281.971 2.12 513.060-226.849 515.18-508.82s-226.849-513.060-508.82-515.18c-284.091-2.12-513.060 226.849-515.18 508.82 0 0 0 2.12 0 2.12 0 284.091 226.849 513.060 508.82 513.060 0 0 0 0 0 0z" />
<glyph unicode="&#xe909;" glyph-name="icon-error" horiz-adv-x="1026" d="M513.078 938.667c-282.408 0-513.078-230.669-510.922-513.078s230.669-513.078 513.078-510.922c282.408 0 510.922 230.669 510.922 513.078s-228.514 510.922-513.078 510.922c0 0 0 0 0 0zM765.305 220.789l-64.674-64.674c-17.246-17.246-43.116-17.246-60.362 0 0 0 0 0 0 0l-133.659 133.659-133.659-133.659c-17.246-17.246-43.116-17.246-60.362 0 0 0 0 0 0 0l-64.674 64.674c-17.246 17.246-17.246 43.116 0 60.362 0 0 0 0 0 0l133.659 133.659-133.659 133.659c-17.246 17.246-17.246 43.116 0 60.362 0 0 0 0 0 0l64.674 64.674c17.246 17.246 43.116 17.246 60.362 0 0 0 0 0 0 0l133.659-133.659 133.659 133.659c17.246 17.246 43.116 17.246 60.362 0 0 0 0 0 0 0l64.674-64.674c17.246-17.246 17.246-43.116 0-60.362 0 0 0 0 0 0l-133.659-133.659 133.659-133.659c15.091-17.246 15.091-43.116 0-60.362 0 0 0 0 0 0z" />
<glyph unicode="&#xe90a;" horiz-adv-x="1026" d="M0 425.598c0 284.326 228.743 513.069 513.069 513.069s513.069-228.743 513.069-513.069-228.743-513.069-513.069-513.069-513.069 228.743-513.069 513.069z" />
<glyph unicode="&#xe90b;" horiz-adv-x="1026" d="M425.42 487.594c0 23.516 19.24 42.756 42.756 42.756h91.925c23.516 0 42.756-19.24 42.756-42.756v-354.873c0-23.516-19.24-42.756-42.756-42.756h-91.925c-23.516 0-42.756 19.24-42.756 42.756v354.873zM425.42 712.062c0 23.516 19.24 42.756 42.756 42.756h91.925c23.516 0 42.756-19.24 42.756-42.756v-89.787c0-23.516-19.24-42.756-42.756-42.756h-91.925c-23.516 0-42.756 19.24-42.756 42.756v89.787z" />
<glyph unicode="&#xe90c;" d="M1024 426.667c0-282.77-229.23-512-512-512s-512 229.23-512 512c0 282.77 229.23 512 512 512s512-229.23 512-512z" />
<glyph unicode="&#xe90d;" d="M563.2 354.987h-102.4v378.88h102.4v-378.88zM563.2 262.827h-102.4v-163.84h102.4v163.84z" />
<glyph unicode="&#xe90e;" glyph-name="icon-calendar" d="M989.867 938.667h-955.733c-20.48 0-34.133-13.653-34.133-34.133v-955.733c0-20.48 13.653-34.133 34.133-34.133h955.733c20.48 0 34.133 13.653 34.133 34.133v955.733c0 20.48-13.653 34.133-34.133 34.133zM955.733 870.4v-136.533h-887.467v136.533h887.467zM68.267-17.066v682.667h887.467v-682.667h-887.467zM348.16 453.974l-122.88-61.44 27.307-61.44 75.093 40.96v-293.547h68.267v348.16c6.827 20.48-13.653 34.133-27.307 34.133-6.827 0-13.653 0-20.48-6.827zM607.573 460.8c-68.267 0-129.707-61.44-129.707-129.707v-129.707c0-68.267 61.44-129.707 129.707-129.707s129.707 61.44 129.707 129.707v129.707c0 68.267-61.44 129.707-129.707 129.707v0zM669.013 201.387c0-34.133-27.307-61.44-61.44-61.44s-61.44 27.307-61.44 61.44v0 129.707c0 34.133 27.307 61.44 61.44 61.44s61.44-27.307 61.44-61.44v-129.707z" />
<glyph unicode="&#xe90f;" glyph-name="icon-clock" d="M95.086 426.667c0-234.057 190.171-416.914 416.914-416.914s416.914 190.171 416.914 416.914-182.857 416.914-416.914 416.914c-234.057 0-416.914-182.857-416.914-416.914 0 0 0 0 0 0zM497.371 938.667h43.886c58.514 0 117.029-14.629 168.229-36.571 160.914-65.829 277.943-212.114 307.2-380.343 7.314-21.943 7.314-51.2 7.314-73.143v-29.257c0-21.943 0-43.886-7.314-65.829-14.629-102.4-65.829-204.8-138.971-277.943-80.457-80.457-182.857-131.657-292.571-146.286-21.943 0-36.571-7.314-58.514-7.314h-36.571c-58.514 0-117.029 14.629-168.229 36.571-160.914 65.829-277.943 212.114-307.2 387.657-7.314 14.629-14.629 43.886-14.629 65.829v29.257c0 7.314 0 7.314 0 14.629 7.314 124.343 58.514 241.371 146.286 329.143 80.457 80.457 182.857 131.657 292.571 146.286l58.514 7.314zM555.886 580.267c0-43.886 0-80.457 0-124.343 0-7.314 0-14.629 7.314-14.629l109.714-109.714c14.629-14.629 21.943-36.571 14.629-51.2-7.314-21.943-36.571-36.571-58.514-21.943-7.314 0-7.314 7.314-14.629 7.314l-131.657 131.657c-7.314 7.314-14.629 14.629-14.629 29.257 0 95.086 0 190.171 0 277.943 0 21.943 21.943 43.886 43.886 43.886s43.886-21.943 43.886-43.886v0c0-36.571 0-80.457 0-124.343v0z" />
<glyph unicode="&#xe910;" glyph-name="icon-checkbox-active" d="M960 938.667h-896c-38.4 0-64-25.6-64-64v-896c0-38.4 25.6-64 64-64h896c38.4 0 64 25.6 64 64v896c0 38.4-25.6 64-64 64zM409.6 100.267l-281.6 268.8 128 121.6 160-153.6 352 345.6 128-121.6-486.4-460.8z" />
<glyph unicode="&#xe911;" glyph-name="icon-checkbox-static" d="M928-85.333h-832c-51.2 0-96 44.8-96 96v0 832c0 51.2 44.8 96 96 96h832c51.2 0 96-44.8 96-96v-832c0-51.2-44.8-96-96-96v0zM96 874.667c-19.2 0-32-12.8-32-32v-832c0-19.2 12.8-32 32-32h832c19.2 0 32 12.8 32 32v832c0 19.2-12.8 32-32 32h-832z" />
<glyph unicode="&#xe912;" glyph-name="icon-radio-active" d="M512-56.889c-267.378 0-483.556 216.178-483.556 483.556s216.178 483.556 483.556 483.556 483.556-216.178 483.556-483.556-216.178-483.556-483.556-483.556zM512 853.334c-233.244 0-426.667-193.422-426.667-426.667s193.422-426.667 426.667-426.667 426.667 193.422 426.667 426.667-193.422 426.667-426.667 426.667zM739.556 426.667c0-125.675-101.88-227.556-227.556-227.556s-227.556 101.88-227.556 227.556c0 125.675 101.88 227.556 227.556 227.556s227.556-101.88 227.556-227.556z" />
<glyph unicode="&#xe913;" glyph-name="icon-radio-static" d="M512-56.889c-267.378 0-483.556 216.178-483.556 483.556s216.178 483.556 483.556 483.556 483.556-216.178 483.556-483.556-216.178-483.556-483.556-483.556zM512 853.334c-233.244 0-426.667-193.422-426.667-426.667s193.422-426.667 426.667-426.667 426.667 193.422 426.667 426.667-193.422 426.667-426.667 426.667z" />
<glyph unicode="&#xe914;" glyph-name="icon-close" d="M580.267 426.667l426.667 426.667c17.067 17.067 17.067 51.2 0 68.267s-51.2 17.067-68.267 0l-426.667-426.667-426.667 426.667c-17.067 17.067-51.2 17.067-68.267 0s-17.067-51.2 0-68.267l426.667-426.667-426.667-426.667c-17.067-17.067-17.067-51.2 0-68.267 8.533-8.533 17.067-17.067 34.133-17.067s25.6 8.533 34.133 17.067l426.667 426.667 426.667-426.667c8.533-8.533 25.6-17.067 34.133-17.067s25.6 8.533 34.133 17.067c17.067 17.067 17.067 51.2 0 68.267l-426.667 426.667z" />
<glyph unicode="&#xe915;" glyph-name="icon-plus" d="M563.2 375.467h409.6c30.72 0 51.2 20.48 51.2 51.2s-20.48 51.2-51.2 51.2h-409.6v409.6c0 30.72-20.48 51.2-51.2 51.2s-51.2-20.48-51.2-51.2v-409.6h-409.6c-30.72 0-51.2-20.48-51.2-51.2s20.48-51.2 51.2-51.2h409.6v-409.6c0-30.72 20.48-51.2 51.2-51.2s51.2 20.48 51.2 51.2v409.6z" />
<glyph unicode="&#xe916;" glyph-name="icon-minus" d="M972.8 375.467c30.72 0 51.2 20.48 51.2 51.2s-20.48 51.2-51.2 51.2h-921.6c-30.72 0-51.2-20.48-51.2-51.2s20.48-51.2 51.2-51.2h921.6z" />
<glyph unicode="&#xe917;" glyph-name="icon-collapse" d="M928 938.667h-832c-51.2 0-96-44.8-96-96v-832c0-51.2 44.8-96 96-96v0h832c51.2 0 96 44.8 96 96v0 832c0 51.2-44.8 96-96 96zM960 10.667c0-19.2-12.8-32-32-32h-832c-19.2 0-32 12.8-32 32v832c0 19.2 12.8 32 32 32h832c19.2 0 32-12.8 32-32v-832zM800 458.667h-576c-19.2 0-32-12.8-32-32s12.8-32 32-32h576c19.2 0 32 12.8 32 32s-12.8 32-32 32z" />
<glyph unicode="&#xe918;" glyph-name="icon-expand" d="M928-85.333h-832c-51.2 0-96 44.8-96 96v0 832c0 51.2 44.8 96 96 96h832c51.2 0 96-44.8 96-96v-832c0-51.2-44.8-96-96-96v0zM96 874.667c-19.2 0-32-12.8-32-32v-832c0-19.2 12.8-32 32-32h832c19.2 0 32 12.8 32 32v832c0 19.2-12.8 32-32 32h-832zM544 394.667h256c19.2 0 32 12.8 32 32s-12.8 32-32 32h-256v256c0 19.2-12.8 32-32 32s-32-12.8-32-32v-256h-256c-19.2 0-32-12.8-32-32s12.8-32 32-32h256v-256c0-19.2 12.8-32 32-32s32 12.8 32 32v256z" />
<glyph unicode="&#xe919;" glyph-name="icon-expand-move" d="M512 253.375c-15.754 0-31.508-15.754-23.631-31.508v-204.8l-94.523 86.646c-15.754 15.754-31.508 7.877-47.262 0s-7.877-31.508 0-47.262v0l141.785-141.785c15.754-15.754 31.508-15.754 47.262 0l141.785 141.785c15.754 7.877 15.754 31.508 0 47.262s-31.508 15.754-47.262 0v0l-86.646-86.646v204.8c0 23.631-15.754 31.508-31.508 31.508 0 0 0 0 0 0v0zM850.708 599.959c-15.754 0-31.508-15.754-31.508-31.508 0-7.877 7.877-15.754 7.877-23.631l86.646-86.646h-204.8c-15.754 0-31.508-15.754-31.508-31.508s15.754-31.508 31.508-31.508h204.8l-78.769-86.646c-15.754-7.877-15.754-31.508 0-47.262 7.877-15.754 31.508-15.754 47.262 0v0l141.785 141.785c15.754 7.877 15.754 31.508 0 47.262 0 0 0 0 0 0v0l-141.785 141.785c-15.754 0-23.631 7.877-31.508 7.877zM165.415 599.959c-7.877 0-7.877-7.877-15.754-7.877l-141.785-141.785c-7.877-15.754-7.877-31.508 0-47.262 0 0 0 0 0 0v0l141.785-141.785c15.754-15.754 31.508-15.754 47.262 0s15.754 31.508 0 47.262v0 0l-94.523 86.646h204.8c15.754 0 31.508 15.754 31.508 31.508s-7.877 31.508-31.508 31.508h-204.8l86.646 86.646c15.754 7.877 15.754 31.508 0 39.385 0 15.754-15.754 15.754-23.631 15.754zM512 938.667c-7.877 0-15.754 0-23.631-7.877l-141.785-141.785c-7.877-7.877-7.877-31.508 0-47.262 15.754-15.754 31.508-15.754 47.262 0v0 0l86.646 86.646v-204.8c0-15.754 15.754-31.508 31.508-31.508s31.508 15.754 31.508 31.508v0 0 212.677l86.646-94.523c15.754-15.754 31.508-15.754 47.262 0s15.754 31.508 0 47.262v0 0l-141.785 141.785c-7.877 7.877-15.754 7.877-23.631 7.877z" />
<glyph unicode="&#xe91a;" glyph-name="icon-contract-move" d="M512-85.333c15.754 0 31.508 15.754 23.631 31.508v204.8l94.523-86.646c15.754-15.754 31.508-7.877 47.262 0s7.877 31.508 0 47.262l-141.785 133.908c-15.754 15.754-31.508 15.754-47.262 0l-141.785-141.785c-15.754-7.877-15.754-31.508 0-47.262 7.877-15.754 31.508-15.754 47.262 0v0l86.646 94.523v-204.8c0-15.754 15.754-31.508 31.508-31.508 0 0 0 0 0 0v0zM858.585 253.375c15.754 0 31.508 15.754 23.631 31.508 0 7.877-7.877 15.754-7.877 15.754l-86.646 94.523h204.8c15.754 0 31.508 15.754 31.508 31.508s-15.754 31.508-31.508 31.508h-204.8l86.646 86.646c15.754 7.877 15.754 31.508 0 47.262-7.877 15.754-31.508 15.754-47.262 0v0 0l-133.908-141.785c-15.754-7.877-15.754-31.508 0-47.262 0 0 0 0 0 0v0l141.785-141.785c0 0 7.877-7.877 23.631-7.877zM173.292 253.375c7.877 0 15.754 7.877 15.754 7.877l141.785 141.785c15.754 7.877 15.754 31.508 0 47.262 0 0 0 0 0 0v0l-133.908 141.785c-15.754 7.877-39.385 7.877-47.262 0-15.754-15.754-15.754-31.508 0-47.262v0 0l86.646-86.646h-204.8c-15.754 0-31.508-15.754-31.508-31.508s15.754-31.508 31.508-31.508h204.8l-86.646-86.646c-15.754-7.877-15.754-31.508 0-39.385 0-15.754 15.754-15.754 23.631-15.754zM512 599.959c7.877 0 15.754 0 15.754 7.877l141.785 141.785c15.754 15.754 15.754 31.508 0 47.262s-23.631 7.877-39.385-7.877v0 0l-86.646-86.646v204.8c0 15.754-15.754 31.508-31.508 31.508s-31.508-15.754-31.508-31.508v0-204.8l-86.646 86.646c-15.754 15.754-31.508 15.754-47.262 0-7.877-7.877-7.877-31.508 0-47.262v0l141.785-141.785c7.877 0 15.754-7.877 23.631 0z" />
<glyph unicode="&#xe91b;" glyph-name="icon-map-pin" d="M520.904 444.476c-71.235 0-129.113 57.878-129.113 129.113s57.878 129.113 129.113 129.113 129.113-57.878 129.113-129.113c0 0 0 0 0 0 0-71.235-57.878-129.113-129.113-129.113zM520.904 938.667c-200.348 0-365.078-164.73-365.078-365.078 0 0 0 0 0 0 0-276.035 365.078-676.73 365.078-676.73s365.078 405.148 365.078 676.73c0 200.348-164.73 365.078-365.078 365.078 0 0 0 0 0 0z" />
<glyph unicode="&#xe91c;" glyph-name="icon-up-double" d="M1011.2 381.867c-12.8-19.2-44.8-25.6-64-6.4 0 0 0 0 0 0l-435.2 384-435.2-384c-19.2-19.2-44.8-12.8-64 0 0 0 0 0 0 0-19.2 25.6-12.8 57.6 6.4 70.4l467.2 416c19.2 12.8 44.8 12.8 57.6 0l467.2-416c12.8-12.8 19.2-44.8 0-64zM1011.2-27.733c-12.8-19.2-44.8-25.6-64-6.4 0 0 0 0 0 0l-435.2 384-435.2-390.4c-19.2-19.2-44.8-12.8-64 6.4 0 0 0 0 0 0-12.8 19.2-12.8 51.2 6.4 70.4l467.2 416c19.2 12.8 44.8 12.8 57.6 0l467.2-416c12.8-12.8 19.2-44.8 0-64z" />
<glyph unicode="&#xe91d;" glyph-name="icon-down-double" d="M12.8 445.867c12.8 19.2 44.8 25.6 64 6.4 0 0 0 0 0 0l435.2-390.4 435.2 390.4c19.2 19.2 44.8 12.8 64-6.4 0 0 0 0 0 0 19.2-19.2 12.8-51.2-6.4-70.4l-467.2-416c-19.2-12.8-44.8-12.8-57.6 0l-460.8 422.4c-19.2 12.8-25.6 44.8-6.4 64zM12.8 855.467c12.8 19.2 44.8 25.6 64 6.4 0 0 0 0 0 0l435.2-384 435.2 390.4c19.2 19.2 44.8 12.8 64-6.4 0 0 0 0 0 0 12.8-19.2 12.8-51.2-6.4-70.4l-460.8-416c-19.2-12.8-44.8-12.8-57.6 0l-467.2 416c-19.2 12.8-25.6 44.8-6.4 64z" />
<glyph unicode="&#xe91e;" glyph-name="icon-left-double" d="M524.8-72.533c19.2 19.2 19.2 44.8 6.4 64l-364.8 435.2 364.8 435.2c19.2 19.2 12.8 51.2-6.4 64s-44.8 12.8-64-6.4v0l-384-460.8c-12.8-19.2-12.8-44.8 0-57.6l390.4-467.2c12.8-19.2 38.4-25.6 57.6-6.4zM908.8-72.533c19.2 19.2 19.2 44.8 6.4 64l-364.8 435.2 364.8 435.2c19.2 19.2 12.8 51.2-6.4 64s-51.2 12.8-64-6.4l-384-460.8c-12.8-19.2-12.8-44.8 0-57.6l390.4-467.2c12.8-19.2 38.4-25.6 57.6-6.4z" />
<glyph unicode="&#xe91f;" glyph-name="icon-right-double" d="M83.2-72.533c-19.2 19.2-19.2 44.8-6.4 64l364.8 435.2-364.8 435.2c-19.2 19.2-12.8 44.8 6.4 64s44.8 12.8 64 0c0 0 0 0 0 0l390.4-467.2c12.8-19.2 12.8-38.4 0-57.6l-390.4-467.2c-19.2-19.2-44.8-25.6-64-6.4zM928 426.667c0-12.8-6.4-19.2-12.8-32l-390.4-467.2c-19.2-19.2-44.8-19.2-64-6.4-19.2 19.2-19.2 44.8-6.4 64l371.2 441.6-364.8 435.2c-19.2 19.2-12.8 51.2 6.4 64 12.8 19.2 44.8 12.8 64 0 0 0 0 0 0 0l390.4-467.2c0-12.8 6.4-19.2 6.4-32z" />
<glyph unicode="&#xe920;" glyph-name="icon-up-single" d="M947.2 215.467l-435.2 364.8-435.2-364.8c-19.2-19.2-44.8-12.8-64 6.4-19.2 12.8-12.8 44.8 0 64 0 0 0 0 0 0l467.2 390.4c19.2 12.8 38.4 12.8 57.6 0l467.2-390.4c19.2-19.2 19.2-44.8 6.4-64s-44.8-25.6-64-6.4z" />
<glyph unicode="&#xe921;" glyph-name="icon-down-single" d="M1011.2 663.467c-19.2 19.2-44.8 19.2-64 6.4l-435.2-364.8-435.2 364.8c-19.2 19.2-51.2 12.8-64-6.4-19.2-19.2-12.8-44.8 6.4-64l467.2-390.4c19.2-12.8 38.4-12.8 57.6 0l467.2 390.4c12.8 19.2 19.2 44.8 0 64z" />
<glyph unicode="&#xe922;" glyph-name="icon-left-single" d="M716.8 925.867c19.2-19.2 19.2-44.8 6.4-64l-364.8-435.2 364.8-435.2c12.8-19.2 12.8-51.2-6.4-64s-44.8-12.8-64 6.4l-384 460.8c-12.8 19.2-12.8 44.8 0 57.6l390.4 467.2c12.8 25.6 38.4 25.6 57.6 6.4z" />
<glyph unicode="&#xe923;" glyph-name="icon-right-single" d="M275.2-72.533c-19.2 19.2-19.2 44.8-6.4 64l364.8 435.2-364.8 435.2c-12.8 19.2-12.8 51.2 6.4 64 19.2 19.2 44.8 12.8 64-6.4l390.4-467.2c12.8-19.2 12.8-38.4 0-57.6l-390.4-467.2c-19.2-12.8-44.8-19.2-64 0z" />
<glyph unicode="&#xe924;" glyph-name="icon-straight-arrow-up" d="M118.154 111.59l393.846 393.846 385.969-393.846 118.154 118.154-504.123 512-512-512z" />
<glyph unicode="&#xe925;" glyph-name="icon-straight-arrow-down" d="M120.517 741.744l389.12-389.908 389.908 389.908 120.517-120.517-510.425-509.637-509.637 509.637 120.517 120.517z" />
<glyph unicode="&#xe926;" glyph-name="icon-straight-arrow-left" d="M702.464 938.667l116.736-120.832-379.904-391.168 379.904-392.192-116.736-119.808-497.664 512 497.664 512z" />
<glyph unicode="&#xe927;" glyph-name="icon-straight-arrow-right" d="M321.536 938.667l-116.736-120.832 379.904-391.168-379.904-392.192 116.736-119.808 497.664 512-497.664 512z" />
<glyph unicode="&#xe928;" glyph-name="icon-download-export" d="M972.8 29.867h-934.4c-19.2 0-38.4-19.2-38.4-38.4s19.2-38.4 38.4-38.4c0 0 0 0 0 0h928c19.2 0 38.4 19.2 38.4 38.4 6.4 25.6-12.8 38.4-32 38.4zM460.8 119.467c12.8-12.8 32-12.8 44.8 0l371.2 288c12.8 12.8 19.2 32 6.4 44.8 0 0 0 0 0 0-12.8 12.8-32 12.8-51.2 0l-307.2-236.8v652.8c0 19.2-19.2 38.4-38.4 38.4s-38.4-19.2-38.4-38.4v-646.4l-307.2 236.8c-19.2 12.8-38.4 6.4-51.2-6.4s-12.8-32 0-44.8l371.2-288z" />
<glyph unicode="&#xe929;" glyph-name="icon-magnifier-glass" d="M1006.854 16.349l-247.227 247.227c53.097 69.802 85.064 158.19 85.064 254.044 0 232.999-188.883 421.882-421.882 421.882-116.937 0-222.763-47.576-299.175-124.429l-0.020-0.020c-76.872-76.432-124.449-182.258-124.449-299.195 0-232.999 188.883-421.882 421.882-421.882 95.854 0 184.241 31.967 255.083 85.822l-1.040-0.758 247.227-247.227c10.652-9.946 25.001-16.053 40.776-16.053 33.034 0 59.813 26.779 59.813 59.813 0 15.775-6.107 30.124-16.085 40.811l0.032-0.035zM209.346 302.655c-54.816 54.777-88.723 130.472-88.723 214.086 0 167.151 135.503 302.654 302.654 302.654s302.654-135.503 302.654-302.654c0-83.614-33.907-159.309-88.721-214.084l-0.002-0.002c-54.865-54.984-130.725-89.001-214.53-89.001s-159.664 34.017-214.524 88.996l-0.005 0.005z" />
<glyph unicode="&#xe92a;" glyph-name="icon-settings" d="M641.808-85.333h-259.616v147.7l-43.396 14.465-102.019-102.019-175.869 174.346 102.019 104.303-14.465 43.396h-148.461v259.616h148.461l14.465 43.396-102.019 102.019 175.869 175.869 102.019-102.019 43.396 14.465v148.461h259.616v-148.461l43.396-14.465 104.303 102.019 175.869-175.869-103.542-102.019 14.465-43.396h148.461v-259.616h-149.222l-14.465-43.396 102.781-104.303-174.346-174.346-104.303 102.019-43.396-14.465zM458.326-9.199h107.349v126.382l140.086 47.203 83.747-81.463 68.52 68.52-83.747 81.463 46.442 140.086h127.143v107.349h-127.143l-46.442 140.086 81.463 81.463-68.52 68.52-81.463-81.463-140.086 46.442v127.143h-107.349v-127.143l-140.086-46.442-81.463 81.463-68.52-68.52 81.463-81.463-46.442-140.086h-127.143v-107.349h127.143l46.442-140.086-81.463-83.747 68.52-68.52 81.463 83.747 140.086-46.442zM512.381 296.859c-71.153 0.432-128.666 58.212-128.666 129.425 0 71.481 57.947 129.428 129.428 129.428s129.426-57.945 129.428-129.425v0c-0.432-71.573-58.553-129.428-130.187-129.428-0.001 0-0.002 0-0.002 0v0zM512.381 480.341c-29.102-0.432-52.527-24.125-52.527-53.288 0-29.433 23.86-53.294 53.294-53.294 29.164 0 52.856 23.425 53.288 52.486v0.041c0 29.854-24.201 54.055-54.055 54.055v0z" />
<glyph unicode="&#xe92b;" glyph-name="icon-up-rounded-full" d="M512-85.333c281.6 0 512 230.4 512 512s-230.4 512-512 512-512-230.4-512-512 230.4-512 512-512zM797.867 345.6c-8.533-12.8-25.6-12.8-38.4-4.267l-256 213.333-256-213.333c-12.8-8.533-29.867-8.533-38.4 4.267s-8.533 29.867 4.267 38.4l273.067 226.133c8.533 8.533 25.6 8.533 34.133 0l273.067-226.133c12.8-12.8 17.067-25.6 4.267-38.4 4.267 0 4.267 0 0 0z" />
<glyph unicode="&#xe92c;" glyph-name="icon-up-rounded" d="M512 516.267l-256-213.333c-12.8-8.533-29.867-8.533-38.4 4.267s-8.533 29.867 4.267 38.4l273.067 226.133c4.267 4.267 12.8 4.267 17.067 4.267s12.8 0 17.067-4.267l273.067-226.133c12.8-8.533 12.8-25.6 4.267-38.4s-25.6-12.8-38.4-4.267l-256 213.333zM512 938.667c-281.6 0-512-230.4-512-512s230.4-512 512-512 512 230.4 512 512-230.4 512-512 512zM512-38.4c-256 0-465.067 209.067-465.067 465.067s209.067 465.067 465.067 465.067 465.067-209.067 465.067-465.067c0-256-209.067-465.067-465.067-465.067z" />
<glyph unicode="&#xe92d;" glyph-name="icon-down-rounded-full" d="M512 938.667c-281.6 0-512-230.4-512-512s230.4-512 512-512 512 230.4 512 512-230.4 512-512 512zM797.867 473.6l-273.067-226.133c-8.533-8.533-25.6-8.533-34.133 0l-277.333 226.133c-12.8 8.533-12.8 25.6-4.267 38.4s25.6 12.8 38.4 4.267l256-213.333 256 213.333c12.8 8.533 29.867 8.533 38.4-4.267s8.533-29.867 0-38.4v0z" />
<glyph unicode="&#xe92e;" glyph-name="icon-down-rounded" d="M806.4 546.134c-8.533 8.533-25.6 12.8-38.4 4.267 0 0 0 0 0 0l-256-213.333-256 213.333c-12.8 8.533-29.867 4.267-38.4-4.267-8.533-12.8-8.533-29.867 4.267-38.4l273.067-226.133c4.267-4.267 12.8-4.267 17.067-4.267s12.8 0 17.067 4.267l273.067 226.133c12.8 8.533 17.067 25.6 4.267 38.4 0-4.267 0 0 0 0zM512 938.667c-281.6 0-512-230.4-512-512s230.4-512 512-512 512 230.4 512 512-230.4 512-512 512zM512-38.4c-256 0-465.067 209.067-465.067 465.067s209.067 465.067 465.067 465.067c256 0 465.067-209.067 465.067-465.067s-209.067-465.067-465.067-465.067z" />
<glyph unicode="&#xe92f;" glyph-name="icon-left-rounded-full" d="M512 938.667c-281.6 0-512-230.4-512-512s230.4-512 512-512 512 230.4 512 512-230.4 512-512 512zM597.333 174.934c8.533-12.8 8.533-29.867-4.267-38.4s-29.867-8.533-38.4 4.267l-226.133 273.067c-8.533 8.533-8.533 25.6 0 34.133l230.4 277.333c8.533 12.8 25.6 12.8 38.4 4.267s12.8-25.6 4.267-38.4l-213.333-256 209.067-260.267z" />
<glyph unicode="&#xe930;" glyph-name="icon-left-rounded" d="M422.4 426.667l213.333-256c8.533-12.8 8.533-29.867-4.267-38.4s-29.867-8.533-38.4 4.267l-226.133 273.067c-4.267 4.267-4.267 12.8-4.267 17.067s0 12.8 4.267 17.067l226.133 273.067c8.533 12.8 25.6 12.8 38.4 4.267s12.8-25.6 4.267-38.4l-213.333-256zM512 891.734c-256 0-465.067-209.067-465.067-465.067s209.067-465.067 465.067-465.067 465.067 209.067 465.067 465.067c0 256-209.067 465.067-465.067 465.067zM512-85.333c-281.6 0-512 230.4-512 512s230.4 512 512 512 512-230.4 512-512-230.4-512-512-512z" />
<glyph unicode="&#xe931;" glyph-name="icon-right-rounded-full" d="M512-85.333c281.6 0 512 230.4 512 512s-230.4 512-512 512-512-230.4-512-512 230.4-512 512-512zM426.667 678.4c-8.533 12.8-8.533 29.867 4.267 38.4s29.867 4.267 38.4-4.267l226.133-273.067c8.533-8.533 8.533-25.6 0-34.133l-230.4-277.333c-8.533-12.8-25.6-12.8-38.4-4.267s-12.8 25.6-4.267 38.4l213.333 256-209.067 260.267z" />
<glyph unicode="&#xe932;" glyph-name="icon-right-rounded" d="M601.6 426.667l-213.333 256c-8.533 12.8-4.267 29.867 4.267 38.4 12.8 8.533 29.867 8.533 38.4-4.267l226.133-273.067c8.533-8.533 8.533-25.6 0-34.133l-226.133-273.067c-8.533-12.8-25.6-12.8-38.4-4.267s-12.8 25.6-4.267 38.4l213.333 256zM512-38.4c256 0 465.067 209.067 465.067 465.067s-209.067 465.067-465.067 465.067-465.067-209.067-465.067-465.067 209.067-465.067 465.067-465.067v0zM512 938.667c281.6 0 512-230.4 512-512s-230.4-512-512-512-512 230.4-512 512 230.4 512 512 512z" />
<glyph unicode="&#xe933;" glyph-name="icon-round-minus-full" d="M0 426.667c0 281.6 230.4 512 512 512s512-230.4 512-512-230.4-512-512-512-512 230.4-512 512zM691.2 448h-371.2c-12.8 0-21.333-8.533-21.333-21.333s8.533-21.333 21.333-21.333h371.2c12.8 0 21.333 8.533 21.333 21.333s-12.8 21.333-21.333 21.333z" />
<glyph unicode="&#xe934;" glyph-name="icon-round-minus" d="M691.2 448h-371.2c-12.8 0-21.333-8.533-21.333-21.333s8.533-21.333 21.333-21.333h371.2c12.8 0 21.333 8.533 21.333 21.333s-12.8 21.333-21.333 21.333zM512 938.667c-281.6 0-512-230.4-512-512s230.4-512 512-512 512 230.4 512 512-230.4 512-512 512zM512-38.4c-256 0-465.067 209.067-465.067 465.067s209.067 465.067 465.067 465.067c256 0 465.067-209.067 465.067-465.067s-209.067-465.067-465.067-465.067z" />
<glyph unicode="&#xe935;" glyph-name="icon-round-plus-full" d="M0 426.667c0 281.6 230.4 512 512 512s512-230.4 512-512-230.4-512-512-512-512 230.4-512 512zM691.2 456.534h-162.133v162.133c0 12.8-8.533 21.333-21.333 21.333s-21.333-8.533-21.333-21.333v-162.133h-166.4c-12.8 0-21.333-8.533-21.333-21.333s8.533-21.333 21.333-21.333h162.133v-162.133c0-12.8 8.533-21.333 21.333-21.333s21.333 8.533 21.333 21.333v166.4h162.133c12.8 0 21.333 8.533 21.333 21.333s-8.533 17.067-17.067 17.067z" />
<glyph unicode="&#xe936;" glyph-name="icon-round-plus" d="M512 938.667c-281.6 0-512-230.4-512-512s230.4-512 512-512 512 230.4 512 512-230.4 512-512 512zM512-38.4c-256 0-465.067 209.067-465.067 465.067s209.067 465.067 465.067 465.067c256 0 465.067-209.067 465.067-465.067s-209.067-465.067-465.067-465.067zM691.2 456.534h-162.133v162.133c0 12.8-8.533 21.333-21.333 21.333s-21.333-8.533-21.333-21.333v-162.133h-166.4c-12.8 0-21.333-8.533-21.333-21.333s8.533-21.333 21.333-21.333h162.133v-162.133c0-12.8 8.533-21.333 21.333-21.333s21.333 8.533 21.333 21.333v166.4h162.133c12.8 0 21.333 8.533 21.333 21.333s-8.533 17.067-17.067 17.067z" />
<glyph unicode="&#xe937;" glyph-name="icon-repeat" d="M829.979 653.025c-10.779 10.779-26.947 10.779-37.726 0s-10.779-26.947-5.389-37.726c75.453-80.842 113.179-188.632 97.011-301.811 0-5.389 0-16.168-5.389-21.558s0-10.779-5.389-16.168-5.389-10.779-5.389-21.558-5.389-10.779-5.389-16.168-5.389-10.779-5.389-16.168-5.389-10.779-5.389-16.168-5.389-10.779-5.389-16.168-5.389-10.779-5.389-16.168l-5.389-16.168-10.779-16.168-10.779-10.779-10.779-16.168-37.726-37.726-97.011-64.674-64.674-21.558-21.558-5.389h-113.179l-21.558 5.389h-16.168l-21.558 5.389-48.505 16.168-48.505 32.337-16.168 5.389-10.779 10.779-16.168 10.779-37.726 37.726-43.116 64.674-10.779 10.779-10.779 16.168-5.389 16.168-5.389 21.558c0 5.389-5.389 10.779-5.389 16.168s0 10.779-5.389 16.168 0 10.779-5.389 21.558 0 10.779 0 16.168 0 10.779 0 21.558 0 10.779 0 16.168 0 10.779 0 16.168 0 10.779 0 21.558 0 10.779 0 16.168 0 16.168 5.389 21.558 0 10.779 0 16.168 5.389 16.168 5.389 21.558 0 10.779 5.389 16.168 5.389 10.779 5.389 16.168 5.389 10.779 5.389 16.168 5.389 10.779 5.389 16.168 5.389 10.779 5.389 16.168l10.779 16.168c10.779 5.389 10.779 10.779 16.168 16.168l10.779 10.779 21.558 32.337 16.168 16.168c70.063 70.063 167.074 107.789 269.474 102.4l-107.789-107.789c-10.779-10.779-10.779-26.947 0-37.726 0 0 0 0 0 0 10.779-10.779 26.947-10.779 37.726 0 0 0 0 0 0 0l150.905 150.905c10.779 10.779 10.779 26.947 0 32.337v5.389l-156.295 150.905c-5.389 10.779-26.947 16.168-37.726 5.389 0 0 0 0 0 0-10.779-10.779-10.779-26.947 0-37.726 0 0 0 0 0 0l102.4-107.789c-107.789 0-215.579-43.116-296.421-118.568v0 0l-32.337-32.337-10.779-16.168-16.168-16.168c0-5.389-5.389-10.779-10.779-21.558l-10.779-16.168c0-5.389-5.389-10.779-10.779-16.168s-5.389-16.168-5.389-21.558-5.389-10.779-10.779-16.168c0-5.389-5.389-16.168-5.389-21.558s-5.389-10.779-5.389-16.168-5.389-16.168-5.389-26.947 0-10.779-5.389-16.168 0-16.168-5.389-21.558 0-5.389 0-5.389 0-10.779 0-10.779 0-16.168 0-21.558 0-16.168 0-21.558 0-10.779 0-21.558 0-16.168 0-21.558 0-10.779 5.389-21.558 0-16.168 5.389-21.558 5.389-10.779 5.389-21.558 5.389-10.779 5.389-21.558 5.389-10.779 5.389-21.558l10.779-16.168 10.779-21.558 5.389-16.168 10.779-21.558 21.558-32.337 21.558-16.168 59.284-59.284 80.842-53.895 16.168-5.389 21.558-5.389 16.168-5.389 21.558-5.389 16.168-5.389 37.726-5.389h129.347l86.232 21.558 16.168 5.389 21.558 10.779 16.168 10.779 21.558 10.779 32.337 21.558 48.505 48.505 5.389 16.168 16.168 16.168 21.558 32.337c5.389 5.389 5.389 10.779 10.779 16.168s5.389 10.779 10.779 21.558 5.389 10.779 10.779 21.558 5.389 10.779 5.389 21.558 5.389 10.779 5.389 21.558 5.389 10.779 5.389 16.168 5.389 16.168 5.389 21.558 0 10.779 5.389 16.168 5.389 16.168 5.389 21.558v5.389c16.168 129.347-26.947 253.305-107.789 344.926z" />
<glyph unicode="&#xe938;" glyph-name="icon-trash" d="M361.813 645.12h75.093v-512h-75.093zM587.093 645.12h75.093v-512h-75.093zM955.733 795.307h-293.547v54.613c0 47.787-40.96 88.747-88.747 88.747h-122.88c-47.787 0-88.747-40.96-88.747-88.747v-61.44h-293.547v-75.093h81.92l54.613-703.147c6.827-54.613 54.613-95.573 102.4-95.573h402.773c54.613 0 102.4 40.96 109.227 95.573l54.613 709.973h81.92v75.093zM423.253 849.92c0 20.48 13.653 34.133 34.133 34.133 0 0 0 0 0 0h122.88c20.48 0 34.133-13.653 34.133-27.307 0 0 0 0 0 0v-61.44h-191.147v54.613zM750.933 17.067c0-20.48-20.48-34.133-40.96-34.133h-402.773c-13.653 0-34.133 13.653-34.133 34.133l-54.613 703.147h593.92l-61.44-703.147z" />
<glyph unicode="&#xe939;" glyph-name="icon-favourite" d="M809.448-60.952h-43.886l-4.876 9.752-63.39 34.133-190.171 107.276-195.048-107.276-48.762-29.257-19.505-14.629h-34.133l-4.876 4.876c-24.381 14.629-34.133 43.886-24.381 68.267l58.514 277.943-121.905 112.152-97.524 82.895c-14.629 14.629-24.381 39.010-19.505 58.514 4.876 24.381 24.381 39.010 48.762 39.010l156.038 19.505 136.533 14.629 117.029 258.438c9.752 29.257 39.010 43.886 68.267 39.010 19.505-4.876 34.133-19.505 39.010-39.010l43.886-102.4 73.143-160.914 282.819-29.257c19.505 0 34.133-9.752 48.762-24.381 4.876-4.876 9.752-19.505 4.876-34.133 0-14.629-9.752-29.257-19.505-39.010-73.143-63.39-141.41-131.657-214.552-195.048l19.505-102.4c9.752-58.514 24.381-117.029 39.010-175.543 9.752-29.257-4.876-53.638-34.133-73.143v0zM789.943-12.19v0c4.876 0 4.876 4.876 4.876 14.629-14.629 58.514-24.381 117.029-39.010 175.543l-19.505 102.4c-4.876 14.629 0 34.133 14.629 43.886 73.143 63.39 141.41 131.657 214.552 195.048 0 0 4.876 4.876 4.876 9.752 0 0 0 4.876-14.629 4.876l-282.819 29.257c-19.505 0-34.133 14.629-39.010 29.257l-68.267 156.038-48.762 102.4c-4.876 14.629-4.876 14.629-4.876 14.629s-4.876 0-9.752-9.752l-117.029-263.314c-4.876-14.629-19.505-24.381-34.133-24.381l-141.41-14.629-156.038-19.505c-4.876 0-4.876 0-4.876-4.876s0 0 4.876-4.876l92.648-87.771 121.905-112.152c14.629-9.752 19.505-29.257 14.629-43.886l-58.514-282.819c0-4.876 0-9.752 0-14.629v0l4.876 4.876h4.876l9.752 9.752 48.762 29.257 195.048 112.152c14.629 9.752 29.257 9.752 43.886 0l195.048-112.152 63.39-39.010z" />
<glyph unicode="&#xe93a;" glyph-name="icon-favourite-active" horiz-adv-x="1075" d="M1064.96 570.027c-15.36 15.36-30.72 20.48-51.2 25.6l-296.96 25.6-76.8 168.96-46.080 102.4c-10.24 30.72-40.96 46.080-71.68 40.96-20.48-5.12-35.84-20.48-40.96-35.84l-122.88-276.48-143.36-15.36-163.84-15.36c-25.6 0-46.080-15.36-51.2-40.96-5.12-20.48 0-46.080 20.48-61.44l97.28-87.040 128-112.64-61.44-296.96c-10.24-25.6 0-61.44 30.72-71.68l5.12-5.12h35.84l76.8 46.080 204.8 117.76 199.68-112.64 66.56-35.84 5.12-10.24h46.080l5.12 5.12c25.6 15.36 35.84 46.080 30.72 71.68-15.36 61.44-25.6 122.88-40.96 184.32l-20.48 107.52c76.8 66.56 153.6 138.24 225.28 204.8 10.24 5.12 15.36 20.48 20.48 35.84 0 15.36-5.12 30.72-10.24 40.96z" />
</font>
</defs>
</svg>
